<?xml version="1.0" encoding="iso-8859-1"?>
<!-- Uploaded to: SVG Repo, www.svgrepo.com, Generator: SVG Repo Mixer Tools -->
<!DOCTYPE svg PUBLIC "-//W3C//DTD SVG 1.1//EN" "http://www.w3.org/Graphics/SVG/1.1/DTD/svg11.dtd">
<svg fill="#000000" version="1.1" id="Capa_1" xmlns="http://www.w3.org/2000/svg" xmlns:xlink="http://www.w3.org/1999/xlink" 
	 width="800px" height="800px" viewBox="0 0 88.4 88.4" xml:space="preserve">
<g>
	<g>
		<path d="M18.335,38.46c4.055,0,7.354-3.298,7.354-7.353c0-4.055-3.299-7.354-7.354-7.354c-4.055,0-7.353,3.3-7.353,7.354
			C10.982,35.161,14.28,38.46,18.335,38.46z M18.335,24.754c3.503,0,6.354,2.85,6.354,6.354c0,3.503-2.85,6.353-6.354,6.353
			c-3.503,0-6.353-2.85-6.353-6.353C11.982,27.604,14.832,24.754,18.335,24.754z"/>
		<path d="M87.898,63.653h-4.426L57.975,25.012c-0.09-0.136-0.232-0.205-0.387-0.215c-0.027-0.005-0.053,0-0.08-0.001
			c-0.016,0.002-0.031-0.002-0.045,0.001c-0.152,0.011-0.298,0.082-0.386,0.22l-13.888,21.6l-8.294-11.66l0,0l-0.005-0.008
			c-0.019-0.027-0.047-0.044-0.07-0.066c-0.022-0.021-0.039-0.047-0.066-0.063c-0.001-0.001-0.003-0.001-0.004-0.002
			c-0.034-0.021-0.072-0.031-0.11-0.043c-0.152-0.051-0.315-0.034-0.443,0.056c-0.001,0.001-0.002,0.001-0.003,0.001
			c-0.024,0.017-0.038,0.041-0.058,0.062c-0.025,0.025-0.053,0.045-0.073,0.075l-0.005,0.008c0,0,0,0,0,0.001L15.622,63.653h-5.235
			v-4.258h4.663c0.007,0,0.014,0,0.02,0c0.276,0,0.5-0.227,0.5-0.5c0-0.152-0.069-0.291-0.178-0.381l-3.653-5.184h3.452
			c0.187,0,0.358-0.104,0.444-0.271c0.086-0.166,0.072-0.364-0.035-0.519l-5.164-7.323c-0.092-0.132-0.242-0.209-0.402-0.211
			c-0.182,0.002-0.312,0.071-0.408,0.2l-5.445,7.324c-0.113,0.149-0.13,0.354-0.045,0.521c0.085,0.17,0.258,0.275,0.447,0.275h3.373
			l-3.915,5.266c-0.113,0.15-0.13,0.354-0.045,0.521s0.258,0.273,0.447,0.273h4.945v4.26H0.5c-0.276,0-0.5,0.223-0.5,0.5
			c0,0.272,0.224,0.5,0.5,0.5h87.4c0.275,0,0.5-0.228,0.5-0.5C88.4,63.874,88.178,63.653,87.898,63.653z M9.351,53.132
			c0.113-0.152,0.13-0.354,0.045-0.521c-0.085-0.173-0.258-0.275-0.447-0.275H5.576l4.439-5.971l4.21,5.971h-3.452
			c-0.187,0-0.358,0.104-0.444,0.271s-0.072,0.364,0.035,0.52l3.719,5.273H5.434L9.351,53.132z M57.533,26.158l3.891,5.893
			c-2.354,1.356-5.373,1.408-7.771,0.145L57.533,26.158z M34.505,36.13l4.102,5.766c-2.381,1.468-5.505,1.548-7.97,0.251
			L34.505,36.13z M30.094,42.993c1.315,0.712,2.789,1.104,4.295,1.104c1.697,0,3.352-0.475,4.785-1.37
			c0.006-0.004,0.009-0.01,0.015-0.014l3.422,4.807l-4.121,6.41c-0.149,0.232-0.082,0.543,0.15,0.691
			c0.084,0.055,0.177,0.08,0.27,0.08c0.165,0,0.326-0.08,0.421-0.229l13.778-21.435c1.312,0.712,2.789,1.102,4.296,1.102
			c1.614,0,3.188-0.441,4.569-1.255l20.305,30.766H65.143v-4.777c2.369-0.254,4.229-2.239,4.229-4.674
			c0-2.604-2.12-4.728-4.729-4.728c-2.604,0-4.725,2.119-4.725,4.728c0,2.435,1.857,4.42,4.225,4.674v4.777H52.258v-4.259h4.664
			c0.008,0,0.014-0.002,0.02,0c0.275,0,0.5-0.226,0.5-0.5c0-0.151-0.067-0.291-0.178-0.383l-3.652-5.181h3.451
			c0.188,0,0.355-0.104,0.443-0.271c0.086-0.168,0.07-0.365-0.035-0.52l-5.162-7.32c-0.094-0.132-0.242-0.211-0.402-0.213
			c-0.172,0.002-0.312,0.07-0.407,0.199l-5.444,7.324c-0.111,0.148-0.131,0.354-0.045,0.521c0.084,0.168,0.258,0.274,0.446,0.274
			h3.373l-3.915,5.265c-0.113,0.151-0.13,0.354-0.045,0.522c0.085,0.17,0.258,0.274,0.445,0.274h4.945v4.256H31.697v-4.774
			c2.368-0.254,4.225-2.24,4.225-4.674c0-2.604-2.12-4.726-4.725-4.726s-4.725,2.119-4.725,4.726c0,2.434,1.857,4.42,4.225,4.674
			v4.776H16.81L30.094,42.993z M64.643,57.927c-2.053,0-3.725-1.67-3.725-3.725s1.672-3.725,3.725-3.725
			c2.058,0,3.729,1.67,3.729,3.725C68.37,56.257,66.699,57.927,64.643,57.927z M51.264,52.608c-0.084-0.17-0.258-0.275-0.445-0.275
			h-3.373l4.438-5.969l4.209,5.969h-3.451c-0.187,0-0.354,0.104-0.44,0.27s-0.071,0.365,0.034,0.521l3.72,5.271h-8.646l3.914-5.264
			C51.333,52.979,51.35,52.778,51.264,52.608z M31.197,57.927c-2.054,0-3.725-1.67-3.725-3.725s1.671-3.725,3.725-3.725
			c2.054,0,3.725,1.67,3.725,3.725S33.25,57.927,31.197,57.927z"/>
	</g>
</g>
</svg>