<?xml version="1.0" encoding="iso-8859-1"?>
<!-- Uploaded to: SVG Repo, www.svgrepo.com, Generator: SVG Repo Mixer Tools -->
<svg height="800px" width="800px" version="1.1" id="Layer_1" xmlns="http://www.w3.org/2000/svg" xmlns:xlink="http://www.w3.org/1999/xlink" 
	 viewBox="0 0 512 512" xml:space="preserve">
<path style="fill:#F0DF9E;" d="M501.333,131.477v13.749H346.965V110.08h151.296C500.267,116.864,501.333,124.043,501.333,131.477z"
	/>
<path style="fill:#F0C419;" d="M498.261,110.08H346.965V55.648h78.549C459.957,55.648,489.035,78.624,498.261,110.08z"/>
<polygon style="fill:#DF4D60;" points="346.965,110.08 346.965,145.227 294.677,145.227 294.677,55.648 346.965,55.648 "/>
<path style="fill:#666666;" d="M294.677,145.227v128.555c0,33.547-13.6,63.925-35.595,85.92
	c-21.984,21.995-52.363,35.595-85.92,35.595c-32.171,0-61.291-13.045-82.379-34.123s-34.123-50.208-34.123-82.379h58.251v5.6
	c0,32.171,26.08,58.251,58.251,58.251c16.779,0,31.968-6.795,42.965-17.792c10.987-10.997,17.792-26.187,17.792-42.965v-44.821
	c0-33.557-27.2-60.757-60.757-60.757v-53.44c0-37.131,30.091-67.221,67.211-67.221h54.304V145.227z"/>
<path style="fill:#B3B3B3;" d="M233.92,237.067v44.821c0,16.779-6.805,31.968-17.792,42.965
	c-10.997,10.997-26.187,17.792-42.965,17.792c-32.171,0-58.251-26.08-58.251-58.251v-5.6h58.251V176.309
	C206.72,176.309,233.92,203.509,233.92,237.067z"/>
<path d="M233.92,130.901c5.89,0,10.667-4.775,10.667-10.667V104.16c0-5.891-4.777-10.667-10.667-10.667s-10.667,4.775-10.667,10.667
	v16.075C223.253,126.126,228.029,130.901,233.92,130.901z"/>
<path d="M244.587,246.755c0-5.891-4.777-10.667-10.667-10.667s-10.667,4.775-10.667,10.667v2.222
	c0,5.891,4.777,10.667,10.667,10.667s10.667-4.775,10.667-10.667V246.755z"/>
<path d="M10.667,289.461h35.775c2.47,29.955,15.313,57.778,36.802,79.257c21.794,21.783,50.091,34.689,80.5,36.902v50.732
	c0,5.891,4.777,10.667,10.667,10.667h60.757c5.89,0,10.667-4.775,10.667-10.667c0-5.891-4.777-10.667-10.667-10.667h-50.091v-40.258
	c30.816-2.735,59.421-16.045,81.548-38.183c24.967-24.969,38.719-58.16,38.719-93.462V155.893h195.989
	c5.89,0,10.667-4.775,10.667-10.667v-13.749c0-8.325-1.18-16.541-3.502-24.397c-0.036-0.125-0.077-0.249-0.117-0.372
	c-10.847-36.363-44.861-61.727-82.865-61.727H294.677h-54.304c-42.942,0-77.877,34.941-77.877,77.888v53.44v91.819h-47.584H56.661
	H10.667C4.777,268.128,0,272.903,0,278.795S4.777,289.461,10.667,289.461z M305.344,66.315H336.3v68.245h-30.956V66.315z
	 M490.667,134.56H357.632v-13.813h132.145c0.585,3.523,0.89,7.11,0.89,10.731L490.667,134.56L490.667,134.56z M482.207,99.413
	H357.632V66.315h67.883C449.195,66.315,470.811,79.388,482.207,99.413z M104.452,289.461c2.605,35.642,32.415,63.851,68.71,63.851
	c19.083,0,37.019-7.428,50.511-20.919c13.486-13.499,20.912-31.435,20.912-50.505c0-5.891-4.777-10.667-10.667-10.667
	s-10.667,4.775-10.667,10.667c0,13.375-5.211,25.956-14.668,35.422c-9.459,9.459-22.039,14.668-35.423,14.668
	c-24.526,0-44.778-18.654-47.315-42.517h47.315c5.89,0,10.667-4.775,10.667-10.667V176.308v-53.44
	c0-31.184,25.365-56.555,56.544-56.555h43.637V273.78c0,29.603-11.532,57.439-32.473,78.38
	c-20.926,20.938-48.761,32.468-78.375,32.468c-28.259,0-54.836-11.009-74.837-31.001c-17.453-17.444-28.061-39.921-30.469-64.167
	h36.597V289.461z"/>
</svg>